:FULLY-SPECIFIED
:FORCE-ALL-JOINTS-BE-3DOF
:DEGREES
136
root 7.6464 16.7101 -26.3036 -6.39561 16.3385 -0.267673
lfemur -9.77747 15.7464 -16.8421
ltibia 30.5145 0 0
lfoot -11.218 -2.28897 0
ltoes 35.601 0 0
rfemur -63.2197 -19.693 13.594
rtibia 67.6762 0 0
rfoot 11.8414 9.1896 0
rtoes -12.6374 0 0
lowerback 12.0797 -3.80566 -3.42627
upperback 3.70941 -5.38972 0.784911
thorax -2.45837 -2.68738 3.32087
lowerneck -11.6592 -2.75935 0.111094
upperneck 1.32074 -3.81826 2.48931
head 2.5241 -1.81058 0.568446
lclavicle 4.11692e-14 -5.89941e-15 0
lhumerus -40.8188 -23.5014 96.554
lradius 49.3757 0 0
lwrist 12.0365 0 0
lhand 16.3752 11.6194 0
lfingers 7.12502 0 0
lthumb 40.967 35.1351 0
rclavicle 4.11692e-14 -5.89941e-15 0
rhumerus -46.2947 -10.0111 -61.8045
rradius 76.4763 0 0
rwrist -5.07746 0 0
rhand 15.9921 -11.591 0
rfingers 7.12502 0 0
rthumb 40.5975 -162.886 0
137
root 7.61358 16.6885 -26.2866 -6.09497 16.9275 -0.323929
lfemur -10.2452 16.3919 -16.7428
ltibia 30.7216 0 0
lfoot -11.0282 -1.45028 0
ltoes 35.8123 0 0
rfemur -62.8115 -19.9308 13.4428
rtibia 69.5682 0 0
rfoot 12.404 8.70388 0
rtoes -11.9109 0 0
lowerback 11.8235 -3.98208 -3.45362
upperback 3.59913 -5.62185 0.739811
thorax -2.41753 -2.8025 3.29644
lowerneck -11.6209 -2.83256 0.0263797
upperneck 1.34729 -3.91095 2.61297
head 2.53357 -1.85297 0.618202
lclavicle 4.40083e-14 -5.60444e-15 0
lhumerus -40.8693 -24.2832 96.9389
lradius 49.3877 0 0
lwrist 12.0264 0 0
lhand 17.2162 12.0608 0
lfingers 7.12502 0 0
lthumb 41.7464 35.2484 0
rclavicle 4.40083e-14 -5.60444e-15 0
rhumerus -46.7577 -10.4472 -62.3987
rradius 77.5452 0 0
rwrist -5.38132 0 0
rhand 16.8619 -11.1603 0
rfingers 7.12502 0 0
rthumb 41.4038 -173.731 0
138
root 7.58077 16.6668 -26.2696 -5.79433 17.5164 -0.380186
lfemur -10.713 17.0374 -16.6435
ltibia 30.9287 0 0
lfoot -10.8385 -0.611584 0
ltoes 36.0237 0 0
rfemur -62.4033 -20.1687 13.2916
rtibia 71.4602 0 0
rfoot 12.9666 8.21817 0
rtoes -11.1844 0 0
lowerback 11.5673 -4.1585 -3.48097
upperback 3.48884 -5.85398 0.69471
thorax -2.37668 -2.91761 3.272
lowerneck -11.5826 -2.90577 -0.0583345
upperneck 1.37384 -4.00364 2.73664
head 2.54304 -1.89537 0.667958
lclavicle 4.68474e-14 -5.30947e-15 0
lhumerus -40.9198 -25.065 97.3237
lradius 49.3997 0 0
lwrist 12.0162 0 0
lhand 18.0572 12.5023 0
lfingers 7.12502 0 0
lthumb 42.5257 35.3616 0
rclavicle 4.68474e-14 -5.30947e-15 0
rhumerus -47.2207 -10.8833 -62.993
rradius 78.614 0 0
rwrist -5.68518 0 0
rhand 17.7317 -10.7296 0
rfingers 7.12502 0 0
rthumb 42.2102 -184.576 0
139
root 7.54795 16.6451 -26.2526 -5.49369 18.1054 -0.436443
lfemur -11.1807 17.6829 -16.5443
ltibia 31.1357 0 0
lfoot -10.6487 0.22711 0
ltoes 36.2351 0 0
rfemur -61.9951 -20.4066 13.1404
rtibia 73.3522 0 0
rfoot 13.5292 7.73245 0
rtoes -10.4579 0 0
lowerback 11.3111 -4.33492 -3.50833
upperback 3.37856 -6.08612 0.649609
thorax -2.33584 -3.03273 3.24757
lowerneck -11.5444 -2.97899 -0.143049
upperneck 1.4004 -4.09634 2.8603
head 2.55252 -1.93776 0.717714
lclavicle 4.96865e-14 -5.0145e-15 0
lhumerus -40.9704 -25.8468 97.7086
lradius 49.4116 0 0
lwrist 12.006 0 0
lhand 18.8982 12.9437 0
lfingers 7.12502 0 0
lthumb 43.3051 35.4748 0
rclavicle 4.96865e-14 -5.0145e-15 0
rhumerus -47.6838 -11.3193 -63.5873
rradius 79.6829 0 0
rwrist -5.98903 0 0
rhand 18.6015 -10.2989 0
rfingers 7.12502 0 0
rthumb 43.0166 -195.422 0
140
root 7.51513 16.6234 -26.2356 -5.19305 18.6944 -0.4927
lfemur -11.6485 18.3284 -16.445
ltibia 31.3428 0 0
lfoot -10.4589 1.0658 0
ltoes 36.4464 0 0
rfemur -61.5869 -20.6445 12.9892
rtibia 75.2442 0 0
rfoot 14.0918 7.24673 0
rtoes -9.73143 0 0
lowerback 11.0548 -4.51134 -3.53568
upperback 3.26827 -6.31825 0.604508
thorax -2.295 -3.14785 3.22314
lowerneck -11.5061 -3.0522 -0.227763
upperneck 1.42695 -4.18903 2.98396
head 2.56199 -1.98015 0.76747
lclavicle 5.25256e-14 -4.71953e-15 0
lhumerus -41.0209 -26.6286 98.0934
lradius 49.4236 0 0
lwrist 11.9958 0 0
lhand 19.7391 13.3852 0
lfingers 7.12502 0 0
lthumb 44.0844 35.5881 0
rclavicle 5.25256e-14 -4.71953e-15 0
rhumerus -48.1468 -11.7554 -64.1816
rradius 80.7518 0 0
rwrist -6.29289 0 0
rhand 19.4714 -9.86817 0
rfingers 7.12502 0 0
rthumb 43.8229 -206.267 0
141
root 7.48232 16.6017 -26.2187 -4.89241 19.2834 -0.548957
lfemur -12.1163 18.9739 -16.3458
ltibia 31.5499 0 0
lfoot -10.2692 1.9045 0
ltoes 36.6578 0 0
rfemur -61.1786 -20.8823 12.8381
rtibia 77.1361 0 0
rfoot 14.6544 6.76101 0
rtoes -9.00495 0 0
lowerback 10.7986 -4.68777 -3.56303
upperback 3.15799 -6.55039 0.559408
thorax -2.25415 -3.26296 3.1987
lowerneck -11.4678 -3.12542 -0.312477
upperneck 1.45351 -4.28173 3.10763
head 2.57146 -2.02255 0.817227
lclavicle 5.53647e-14 -4.42456e-15 0
lhumerus -41.0714 -27.4104 98.4783
lradius 49.4356 0 0
lwrist 11.9856 0 0
lhand 20.5801 13.8266 0
lfingers 7.12502 0 0
lthumb 44.8638 35.7013 0
rclavicle 5.53647e-14 -4.42456e-15 0
rhumerus -48.6098 -12.1914 -64.7759
rradius 81.8206 0 0
rwrist -6.59675 0 0
rhand 20.3412 -9.43746 0
rfingers 7.12502 0 0
rthumb 44.6293 -217.112 0
